# MagicaVoxel @ Ephtracy

# group
o 

# material
mtllib flower_1.mtl
usemtl palette

# normals
vn -1 0 0
vn 1 0 0
vn 0 0 1
vn 0 0 -1
vn 0 -1 0
vn 0 1 0

# texcoords
vt 0.00195313 0.5
vt 0.0214844 0.5
vt 0.892578 0.5
vt 0.904297 0.5

# verts
v 1.1 8.2 1.8
v 1.1 8.2 0.5
v 1.1 9.5 1.8
v 1.1 9.5 0.5
v 2.3 1.1 0.6
v 2.3 1.1 -0.6
v 2.3 7 1.8
v 2.3 7 0.6
v 2.3 8.2 1.8
v 2.3 8.2 0.6
v 2.3 8.2 0.5
v 2.3 9.5 1.8
v 2.3 9.5 0.5
v 2.3 9.5 -0.6
v 2.3 10.7 1.8
v 2.3 10.7 0.5
v 3.5 1.2 0.5
v 3.5 1.2 -0.5
v 3.5 5.9 0.5
v 3.5 5.9 -0.5
v 3.5 7.1 1.7
v 3.5 7.1 0.6
v 3.5 7.1 -0.5
v 3.5 8.2 1.7
v 3.5 8.2 0.6
v 3.5 8.2 0.5
v 3.5 9.4 0.5
v 3.5 9.4 -0.5
v 3.5 9.5 1.7
v 3.5 9.5 0.6
v 3.5 10.6 1.7
v 3.5 10.6 0.6
v 3.6 5.9 0.5
v 3.6 5.9 -0.5
v 3.6 6 0.5
v 3.6 6 -0.5
v 3.6 7 0.6
v 3.6 7 0.5
v 3.6 7 -0.5
v 3.6 7.1 0.6
v 3.6 7.1 -0.5
v 3.6 8.2 1.7
v 3.6 8.2 0.6
v 3.6 8.2 0.5
v 3.6 8.3 1.7
v 3.6 8.3 0.6
v 3.6 9.4 1.7
v 3.6 9.4 0.6
v 3.6 9.5 1.7
v 3.6 9.5 0.5
v 4.7 6 0.5
v 4.7 6 -0.5
v 4.7 7 0.5
v 4.7 7 -0.5
v 4.7 8.3 1.7
v 4.7 8.3 0.6
v 4.7 9.4 1.7
v 4.7 9.4 0.6
v 1.2 8.3 1.7
v 1.2 8.3 0.6
v 1.2 9.4 1.7
v 1.2 9.4 0.6
v 2.3 8.2 1.7
v 2.3 8.2 0.6
v 2.3 8.2 0.5
v 2.3 8.3 1.7
v 2.3 8.3 0.6
v 2.3 9.4 1.7
v 2.3 9.4 0.6
v 2.3 9.5 1.7
v 2.3 9.5 0.5
v 2.4 1.2 0.5
v 2.4 1.2 -0.5
v 2.4 4.8 0.5
v 2.4 4.8 -0.5
v 2.4 6 0.5
v 2.4 6 -0.5
v 2.4 7 0.6
v 2.4 7 0.5
v 2.4 7.1 1.7
v 2.4 7.1 0.6
v 2.4 8.2 1.7
v 2.4 8.2 0.6
v 2.4 8.2 0.5
v 2.4 9.4 0.5
v 2.4 9.4 -0.5
v 2.4 9.5 1.7
v 2.4 9.5 0.6
v 2.4 10.6 1.7
v 2.4 10.6 0.6
v 2.5 4.8 0.5
v 2.5 4.8 -0.5
v 2.5 6 0.5
v 2.5 6 -0.5
v 3.6 1.1 0.6
v 3.6 1.1 -0.6
v 3.6 5.9 0.6
v 3.6 5.9 -0.6
v 3.6 7 1.8
v 3.6 7 0.6
v 3.6 7.1 0.6
v 3.6 7.1 -0.6
v 3.6 8.2 1.8
v 3.6 8.2 0.6
v 3.6 8.2 0.5
v 3.6 9.5 1.8
v 3.6 9.5 0.5
v 3.6 9.5 -0.6
v 3.6 10.7 1.8
v 3.6 10.7 0.5
v 4.8 5.9 0.6
v 4.8 5.9 -0.6
v 4.8 7.1 0.6
v 4.8 7.1 -0.6
v 4.8 8.2 1.8
v 4.8 8.2 0.5
v 4.8 9.5 1.8
v 4.8 9.5 0.5
v 1.1 8.2 1.8
v 1.1 9.5 1.8
v 2.3 7 1.8
v 2.3 8.2 1.8
v 2.3 9.5 1.8
v 2.3 10.7 1.8
v 3.6 7 1.8
v 3.6 8.2 1.8
v 3.6 9.5 1.8
v 3.6 10.7 1.8
v 4.8 8.2 1.8
v 4.8 9.5 1.8
v 1.2 8.3 0.6
v 1.2 9.4 0.6
v 2.3 1.1 0.6
v 2.3 7 0.6
v 2.3 8.3 0.6
v 2.3 9.4 0.6
v 2.4 9.5 0.6
v 2.4 10.6 0.6
v 3.5 9.5 0.6
v 3.5 10.6 0.6
v 3.6 1.1 0.6
v 3.6 5.9 0.6
v 3.6 7 0.6
v 3.6 7.1 0.6
v 3.6 8.3 0.6
v 3.6 9.4 0.6
v 4.7 8.3 0.6
v 4.7 9.4 0.6
v 4.8 5.9 0.6
v 4.8 7.1 0.6
v 2.3 8.2 0.5
v 2.3 9.5 0.5
v 2.4 8.2 0.5
v 2.4 9.4 0.5
v 3.5 8.2 0.5
v 3.5 9.4 0.5
v 3.6 8.2 0.5
v 3.6 9.5 0.5
v 2.4 1.2 -0.5
v 2.4 4.8 -0.5
v 2.4 6 -0.5
v 2.4 9.4 -0.5
v 2.5 4.8 -0.5
v 2.5 6 -0.5
v 3.5 1.2 -0.5
v 3.5 5.9 -0.5
v 3.5 7.1 -0.5
v 3.5 9.4 -0.5
v 3.6 5.9 -0.5
v 3.6 6 -0.5
v 3.6 7 -0.5
v 3.6 7.1 -0.5
v 4.7 6 -0.5
v 4.7 7 -0.5
v 1.2 8.3 1.7
v 1.2 9.4 1.7
v 2.3 8.2 1.7
v 2.3 8.3 1.7
v 2.3 9.4 1.7
v 2.3 9.5 1.7
v 2.4 7.1 1.7
v 2.4 8.2 1.7
v 2.4 9.5 1.7
v 2.4 10.6 1.7
v 3.5 7.1 1.7
v 3.5 8.2 1.7
v 3.5 9.5 1.7
v 3.5 10.6 1.7
v 3.6 8.2 1.7
v 3.6 8.3 1.7
v 3.6 9.4 1.7
v 3.6 9.5 1.7
v 4.7 8.3 1.7
v 4.7 9.4 1.7
v 2.4 7 0.6
v 2.4 7.1 0.6
v 3.5 7.1 0.6
v 3.6 7 0.6
v 3.6 7.1 0.6
v 1.1 8.2 0.5
v 1.1 9.5 0.5
v 2.3 8.2 0.5
v 2.3 9.5 0.5
v 2.3 10.7 0.5
v 2.4 1.2 0.5
v 2.4 4.8 0.5
v 2.4 6 0.5
v 2.4 7 0.5
v 2.5 4.8 0.5
v 2.5 6 0.5
v 3.5 1.2 0.5
v 3.5 5.9 0.5
v 3.6 5.9 0.5
v 3.6 6 0.5
v 3.6 7 0.5
v 3.6 8.2 0.5
v 3.6 9.5 0.5
v 3.6 10.7 0.5
v 4.7 6 0.5
v 4.7 7 0.5
v 4.8 8.2 0.5
v 4.8 9.5 0.5
v 2.3 1.1 -0.6
v 2.3 9.5 -0.6
v 3.6 1.1 -0.6
v 3.6 5.9 -0.6
v 3.6 7.1 -0.6
v 3.6 9.5 -0.6
v 4.8 5.9 -0.6
v 4.8 7.1 -0.6
v 2.3 1.1 0.6
v 3.6 1.1 0.6
v 2.3 1.1 -0.6
v 3.6 1.1 -0.6
v 2.4 4.8 0.5
v 2.5 4.8 0.5
v 2.4 4.8 -0.5
v 2.5 4.8 -0.5
v 3.6 5.9 0.6
v 4.8 5.9 0.6
v 3.6 5.9 -0.6
v 4.8 5.9 -0.6
v 2.3 7 1.8
v 3.6 7 1.8
v 2.3 7 0.6
v 3.6 7 0.6
v 3.6 7 0.5
v 4.7 7 0.5
v 3.6 7 -0.5
v 4.7 7 -0.5
v 3.5 7.1 0.6
v 3.6 7.1 0.6
v 3.5 7.1 -0.5
v 3.6 7.1 -0.5
v 1.1 8.2 1.8
v 2.3 8.2 1.8
v 3.6 8.2 1.8
v 4.8 8.2 1.8
v 2.3 8.2 0.6
v 3.6 8.2 0.6
v 1.1 8.2 0.5
v 2.3 8.2 0.5
v 3.6 8.2 0.5
v 4.8 8.2 0.5
v 1.2 9.4 1.7
v 2.3 9.4 1.7
v 3.6 9.4 1.7
v 4.7 9.4 1.7
v 1.2 9.4 0.6
v 2.3 9.4 0.6
v 3.6 9.4 0.6
v 4.7 9.4 0.6
v 2.4 9.4 0.5
v 3.5 9.4 0.5
v 2.4 9.4 -0.5
v 3.5 9.4 -0.5
v 2.3 9.5 1.7
v 2.4 9.5 1.7
v 3.5 9.5 1.7
v 3.6 9.5 1.7
v 2.4 9.5 0.6
v 3.5 9.5 0.6
v 2.3 9.5 0.5
v 3.6 9.5 0.5
v 2.4 10.6 1.7
v 3.5 10.6 1.7
v 2.4 10.6 0.6
v 3.5 10.6 0.6
v 2.4 1.2 0.5
v 3.5 1.2 0.5
v 2.4 1.2 -0.5
v 3.5 1.2 -0.5
v 3.5 5.9 0.5
v 3.6 5.9 0.5
v 3.5 5.9 -0.5
v 3.6 5.9 -0.5
v 2.4 6 0.5
v 2.5 6 0.5
v 3.6 6 0.5
v 4.7 6 0.5
v 2.4 6 -0.5
v 2.5 6 -0.5
v 3.6 6 -0.5
v 4.7 6 -0.5
v 2.4 7 0.6
v 3.6 7 0.6
v 2.4 7 0.5
v 3.6 7 0.5
v 2.4 7.1 1.7
v 3.5 7.1 1.7
v 2.4 7.1 0.6
v 3.5 7.1 0.6
v 3.6 7.1 0.6
v 4.8 7.1 0.6
v 3.6 7.1 -0.6
v 4.8 7.1 -0.6
v 2.3 8.2 1.7
v 2.4 8.2 1.7
v 3.5 8.2 1.7
v 3.6 8.2 1.7
v 2.3 8.2 0.6
v 2.4 8.2 0.6
v 3.5 8.2 0.6
v 3.6 8.2 0.6
v 2.3 8.2 0.5
v 2.4 8.2 0.5
v 3.5 8.2 0.5
v 3.6 8.2 0.5
v 1.2 8.3 1.7
v 2.3 8.3 1.7
v 3.6 8.3 1.7
v 4.7 8.3 1.7
v 1.2 8.3 0.6
v 2.3 8.3 0.6
v 3.6 8.3 0.6
v 4.7 8.3 0.6
v 1.1 9.5 1.8
v 2.3 9.5 1.8
v 3.6 9.5 1.8
v 4.8 9.5 1.8
v 1.1 9.5 0.5
v 2.3 9.5 0.5
v 3.6 9.5 0.5
v 4.8 9.5 0.5
v 2.3 9.5 -0.6
v 3.6 9.5 -0.6
v 2.3 10.7 1.8
v 3.6 10.7 1.8
v 2.3 10.7 0.5
v 3.6 10.7 0.5

# faces
f 3/1/1 2/1/1 1/1/1
f 4/1/1 2/1/1 3/1/1
f 8/4/1 6/4/1 5/4/1
f 9/1/1 8/1/1 7/1/1
f 10/4/1 6/4/1 8/4/1
f 10/1/1 8/1/1 9/1/1
f 11/4/1 6/4/1 10/4/1
f 13/4/1 6/4/1 11/4/1
f 14/4/1 6/4/1 13/4/1
f 15/1/1 13/1/1 12/1/1
f 16/1/1 13/1/1 15/1/1
f 19/4/1 18/4/1 17/4/1
f 20/4/1 18/4/1 19/4/1
f 24/1/1 22/1/1 21/1/1
f 25/4/1 23/4/1 22/4/1
f 25/1/1 22/1/1 24/1/1
f 26/4/1 23/4/1 25/4/1
f 27/4/1 23/4/1 26/4/1
f 28/4/1 23/4/1 27/4/1
f 31/1/1 30/1/1 29/1/1
f 32/1/1 30/1/1 31/1/1
f 35/3/1 34/3/1 33/3/1
f 36/3/1 34/3/1 35/3/1
f 40/3/1 38/3/1 37/3/1
f 40/3/1 39/3/1 38/3/1
f 41/3/1 39/3/1 40/3/1
f 45/1/1 43/1/1 42/1/1
f 45/1/1 44/1/1 43/1/1
f 46/1/1 44/1/1 45/1/1
f 48/1/1 44/1/1 46/1/1
f 49/1/1 48/1/1 47/1/1
f 50/1/1 44/1/1 48/1/1
f 50/1/1 48/1/1 49/1/1
f 53/3/1 52/3/1 51/3/1
f 54/3/1 52/3/1 53/3/1
f 57/1/1 56/1/1 55/1/1
f 58/1/1 56/1/1 57/1/1
f 59/1/2 60/1/2 61/1/2
f 61/1/2 60/1/2 62/1/2
f 63/1/2 64/1/2 66/1/2
f 64/1/2 65/1/2 66/1/2
f 66/1/2 65/1/2 67/1/2
f 67/1/2 65/1/2 69/1/2
f 68/1/2 69/1/2 70/1/2
f 69/1/2 65/1/2 71/1/2
f 70/1/2 69/1/2 71/1/2
f 72/4/2 73/4/2 74/4/2
f 74/4/2 73/4/2 75/4/2
f 76/4/2 77/4/2 79/4/2
f 78/4/2 79/4/2 81/4/2
f 80/1/2 81/1/2 82/1/2
f 81/4/2 79/4/2 83/4/2
f 82/1/2 81/1/2 83/1/2
f 79/4/2 77/4/2 84/4/2
f 83/4/2 79/4/2 84/4/2
f 84/4/2 77/4/2 85/4/2
f 85/4/2 77/4/2 86/4/2
f 87/1/2 88/1/2 89/1/2
f 89/1/2 88/1/2 90/1/2
f 91/4/2 92/4/2 93/4/2
f 93/4/2 92/4/2 94/4/2
f 95/4/2 96/4/2 97/4/2
f 97/4/2 96/4/2 98/4/2
f 99/1/2 100/1/2 101/1/2
f 99/1/2 101/1/2 103/1/2
f 101/4/2 102/4/2 104/4/2
f 103/1/2 101/1/2 104/1/2
f 104/4/2 102/4/2 105/4/2
f 105/4/2 102/4/2 107/4/2
f 107/4/2 102/4/2 108/4/2
f 106/1/2 107/1/2 109/1/2
f 109/1/2 107/1/2 110/1/2
f 111/3/2 112/3/2 113/3/2
f 113/3/2 112/3/2 114/3/2
f 115/1/2 116/1/2 117/1/2
f 117/1/2 116/1/2 118/1/2
f 122/1/3 120/1/3 119/1/3
f 123/1/3 120/1/3 122/1/3
f 125/1/3 122/1/3 121/1/3
f 126/2/3 123/2/3 122/2/3
f 126/1/3 122/1/3 125/1/3
f 127/1/3 124/1/3 123/1/3
f 127/2/3 123/2/3 126/2/3
f 128/1/3 124/1/3 127/1/3
f 129/1/3 127/1/3 126/1/3
f 130/1/3 127/1/3 129/1/3
f 135/1/3 132/1/3 131/1/3
f 136/1/3 132/1/3 135/1/3
f 139/1/3 138/1/3 137/1/3
f 140/1/3 138/1/3 139/1/3
f 141/4/3 134/4/3 133/4/3
f 142/4/3 134/4/3 141/4/3
f 143/4/3 134/4/3 142/4/3
f 147/1/3 146/1/3 145/1/3
f 148/1/3 146/1/3 147/1/3
f 149/3/3 144/3/3 143/3/3
f 149/3/3 143/3/3 142/3/3
f 150/3/3 144/3/3 149/3/3
f 153/4/3 152/4/3 151/4/3
f 154/4/3 152/4/3 153/4/3
f 156/4/3 152/4/3 154/4/3
f 157/4/3 156/4/3 155/4/3
f 158/4/3 152/4/3 156/4/3
f 158/4/3 156/4/3 157/4/3
f 163/4/3 160/4/3 159/4/3
f 164/4/3 162/4/3 161/4/3
f 165/4/3 163/4/3 159/4/3
f 165/4/3 164/4/3 163/4/3
f 166/4/3 164/4/3 165/4/3
f 167/4/3 162/4/3 164/4/3
f 167/4/3 164/4/3 166/4/3
f 168/4/3 162/4/3 167/4/3
f 169/4/3 167/4/3 166/4/3
f 170/4/3 167/4/3 169/4/3
f 171/4/3 167/4/3 170/4/3
f 172/4/3 167/4/3 171/4/3
f 173/3/3 171/3/3 170/3/3
f 174/3/3 171/3/3 173/3/3
f 175/1/4 176/1/4 178/1/4
f 178/1/4 176/1/4 179/1/4
f 177/2/4 178/2/4 182/2/4
f 179/2/4 180/2/4 182/2/4
f 178/2/4 179/2/4 182/2/4
f 182/2/4 180/2/4 183/2/4
f 181/1/4 182/1/4 185/1/4
f 182/2/4 183/2/4 186/2/4
f 185/1/4 182/1/4 186/1/4
f 183/1/4 184/1/4 187/1/4
f 186/2/4 183/2/4 187/2/4
f 187/1/4 184/1/4 188/1/4
f 186/2/4 187/2/4 189/2/4
f 189/2/4 187/2/4 190/2/4
f 190/2/4 187/2/4 191/2/4
f 191/2/4 187/2/4 192/2/4
f 190/1/4 191/1/4 193/1/4
f 193/1/4 191/1/4 194/1/4
f 195/1/4 196/1/4 197/1/4
f 195/1/4 197/1/4 198/1/4
f 198/1/4 197/1/4 199/1/4
f 200/1/4 201/1/4 202/1/4
f 202/1/4 201/1/4 203/1/4
f 205/4/4 206/4/4 209/4/4
f 207/4/4 208/4/4 210/4/4
f 205/4/4 209/4/4 211/4/4
f 209/4/4 210/4/4 211/4/4
f 211/4/4 210/4/4 212/4/4
f 212/4/4 210/4/4 213/4/4
f 210/4/4 208/4/4 214/4/4
f 213/4/4 210/4/4 214/4/4
f 214/4/4 208/4/4 215/4/4
f 203/1/4 204/1/4 217/1/4
f 217/1/4 204/1/4 218/1/4
f 214/3/4 215/3/4 219/3/4
f 219/3/4 215/3/4 220/3/4
f 216/1/4 217/1/4 221/1/4
f 221/1/4 217/1/4 222/1/4
f 223/4/4 224/4/4 225/4/4
f 225/4/4 224/4/4 226/4/4
f 226/4/4 224/4/4 227/4/4
f 227/4/4 224/4/4 228/4/4
f 226/3/4 227/3/4 229/3/4
f 229/3/4 227/3/4 230/3/4
f 233/4/5 232/4/5 231/4/5
f 234/4/5 232/4/5 233/4/5
f 237/4/5 236/4/5 235/4/5
f 238/4/5 236/4/5 237/4/5
f 241/3/5 240/3/5 239/3/5
f 242/3/5 240/3/5 241/3/5
f 245/1/5 244/1/5 243/1/5
f 246/1/5 244/1/5 245/1/5
f 249/3/5 248/3/5 247/3/5
f 250/3/5 248/3/5 249/3/5
f 253/4/5 252/4/5 251/4/5
f 254/4/5 252/4/5 253/4/5
f 259/1/5 256/1/5 255/1/5
f 260/1/5 258/1/5 257/1/5
f 261/1/5 259/1/5 255/1/5
f 262/1/5 259/1/5 261/1/5
f 263/1/5 258/1/5 260/1/5
f 264/1/5 258/1/5 263/1/5
f 269/1/5 266/1/5 265/1/5
f 270/1/5 266/1/5 269/1/5
f 271/1/5 268/1/5 267/1/5
f 272/1/5 268/1/5 271/1/5
f 275/4/5 274/4/5 273/4/5
f 276/4/5 274/4/5 275/4/5
f 281/1/5 278/1/5 277/1/5
f 282/1/5 280/1/5 279/1/5
f 283/1/5 281/1/5 277/1/5
f 283/1/5 282/1/5 281/1/5
f 284/1/5 280/1/5 282/1/5
f 284/1/5 282/1/5 283/1/5
f 287/1/5 286/1/5 285/1/5
f 288/1/5 286/1/5 287/1/5
f 289/4/6 290/4/6 291/4/6
f 291/4/6 290/4/6 292/4/6
f 293/4/6 294/4/6 295/4/6
f 295/4/6 294/4/6 296/4/6
f 297/4/6 298/4/6 301/4/6
f 301/4/6 298/4/6 302/4/6
f 299/3/6 300/3/6 303/3/6
f 303/3/6 300/3/6 304/3/6
f 305/4/6 306/4/6 307/4/6
f 307/4/6 306/4/6 308/4/6
f 309/1/6 310/1/6 311/1/6
f 311/1/6 310/1/6 312/1/6
f 313/3/6 314/3/6 315/3/6
f 315/3/6 314/3/6 316/3/6
f 317/1/6 318/1/6 321/1/6
f 321/1/6 318/1/6 322/1/6
f 319/1/6 320/1/6 323/1/6
f 323/1/6 320/1/6 324/1/6
f 321/4/6 322/4/6 325/4/6
f 325/4/6 322/4/6 326/4/6
f 323/4/6 324/4/6 327/4/6
f 327/4/6 324/4/6 328/4/6
f 329/1/6 330/1/6 333/1/6
f 333/1/6 330/1/6 334/1/6
f 331/1/6 332/1/6 335/1/6
f 335/1/6 332/1/6 336/1/6
f 337/1/6 338/1/6 341/1/6
f 341/1/6 338/1/6 342/1/6
f 339/1/6 340/1/6 343/1/6
f 343/1/6 340/1/6 344/1/6
f 342/4/6 343/4/6 345/4/6
f 345/4/6 343/4/6 346/4/6
f 347/1/6 348/1/6 349/1/6
f 349/1/6 348/1/6 350/1/6
